<svg width="32" height="32" viewBox="0 0 32 32" fill="none" xmlns="http://www.w3.org/2000/svg">
<path d="M21.65 29.4425H4.78C4.28408 29.4438 3.79276 29.3473 3.33421 29.1584C2.87566 28.9695 2.45888 28.692 2.10774 28.3418C1.7566 27.9916 1.47801 27.5756 1.28793 27.1175C1.09784 26.6595 0.999998 26.1684 1 25.6725V23.3125H17.87V25.6725C17.9198 26.6401 18.3393 27.5516 19.0418 28.2189C19.7442 28.8861 20.6761 29.2581 21.645 29.2581C22.6139 29.2581 23.5458 28.8861 24.2482 28.2189C24.9507 27.5516 25.3702 26.6401 25.42 25.6725L25.34 5.3925C25.34 4.64194 25.6382 3.92212 26.1689 3.39139C26.6996 2.86066 27.4194 2.5625 28.17 2.5625C28.9206 2.5625 29.6404 2.86066 30.1711 3.39139C30.7018 3.92212 31 4.64194 31 5.3925V9.7025H25.35" stroke="#666666" stroke-width="1.2" stroke-miterlimit="10" stroke-linecap="round"/>
<path d="M5.37988 23.3125V5.0825C5.37988 4.41415 5.64538 3.77318 6.11797 3.30059C6.59057 2.828 7.23154 2.5625 7.89988 2.5625H28.1599" stroke="#666666" stroke-width="1.2" stroke-miterlimit="10" stroke-linecap="round"/>
<path d="M9.17993 18.0234H21.3399" stroke="#666666" stroke-width="1.2" stroke-miterlimit="10" stroke-linecap="round"/>
<path d="M9.17993 20.2891H21.3399" stroke="#666666" stroke-width="1.2" stroke-miterlimit="10" stroke-linecap="round"/>
<path d="M13.52 10.5916L14.67 11.7416L16.81 9.60156" stroke="#666666" stroke-width="1.2" stroke-miterlimit="10" stroke-linecap="round"/>
<path d="M18.9999 10.9981V7.75813L15.1099 5.82812L11.2199 7.75813V10.9981C11.2199 10.9981 10.8699 13.7281 15.1099 15.5481C19.3499 13.7281 18.9999 10.9981 18.9999 10.9981Z" stroke="#666666" stroke-width="1.2" stroke-miterlimit="10" stroke-linecap="round"/>
</svg>
