<svg width="24" height="25" viewBox="0 0 24 25" fill="none" xmlns="http://www.w3.org/2000/svg">
<path fill-rule="evenodd" clip-rule="evenodd" d="M12 4.25C7.58172 4.25 4 7.83172 4 12.25C4 16.6683 7.58172 20.25 12 20.25C16.4183 20.25 20 16.6683 20 12.25C20 7.83172 16.4183 4.25 12 4.25ZM3 12.25C3 7.27944 7.02944 3.25 12 3.25C16.9706 3.25 21 7.27944 21 12.25C21 17.2206 16.9706 21.25 12 21.25C7.02944 21.25 3 17.2206 3 12.25Z" fill="#999999"/>
<path fill-rule="evenodd" clip-rule="evenodd" d="M15.3072 17.6292C16.2728 17.8696 17.1304 18.2108 17.8389 18.6213C17.9489 18.6851 18.0544 18.7499 18.1554 18.8155C18.4022 18.584 18.6359 18.3388 18.8554 18.0811C17.9758 17.4766 16.8614 16.9905 15.5938 16.6701C15.8897 15.5266 16.0744 14.2278 16.1157 12.8436H20.5976V11.8436H16.1204C16.0932 10.5103 15.9332 9.25238 15.6684 8.13152C16.9865 7.78997 18.1356 7.2686 19.0227 6.62124C18.8126 6.35952 18.5882 6.10979 18.3507 5.87323C18.1926 5.98435 18.0221 6.09327 17.8389 6.19944C17.1543 6.59616 16.3303 6.92806 15.4043 7.1669C14.6613 4.80162 13.4132 3.25 12 3.25C10.5894 3.25 9.3452 4.7958 8.60169 7.15359C7.6965 6.91579 6.89026 6.58884 6.21831 6.19944C6.02213 6.08575 5.84051 5.96892 5.67309 5.84961C5.43478 6.08521 5.20955 6.33402 4.9986 6.59485C5.87886 7.24584 7.02254 7.77148 8.33666 8.1179C8.06997 9.24218 7.90871 10.5049 7.88145 11.8436H3.40234V12.8436H7.88614C7.9276 14.2331 8.11353 15.5367 8.41149 16.6833C7.14805 17.0083 6.03902 17.4982 5.16583 18.1059C5.38611 18.3628 5.62062 18.607 5.86813 18.8375C5.97925 18.7643 6.09595 18.6922 6.21831 18.6213C6.91425 18.218 7.75422 17.8817 8.69899 17.642C9.45114 19.8326 10.6493 21.25 12 21.25C13.3534 21.25 14.5554 19.827 15.3072 17.6292ZM14.6147 16.4615C14.8936 15.3984 15.0736 14.1704 15.1152 12.8436H8.88661C8.9284 14.1743 9.1093 15.4057 9.38955 16.4708C10.2236 16.3215 11.1099 16.241 12.0286 16.241C12.9279 16.241 13.7962 16.3181 14.6147 16.4615ZM14.3192 17.4255C13.5971 17.3061 12.8288 17.241 12.0286 17.241C11.209 17.241 10.423 17.3093 9.68571 17.4342C9.78188 17.7042 9.88502 17.9591 9.99421 18.1974C10.708 19.7554 11.4904 20.25 12 20.25C12.5096 20.25 13.2938 19.7554 14.0076 18.1974C14.118 17.9565 14.2222 17.6987 14.3192 17.4255ZM9.31271 8.33592C9.06412 9.37945 8.909 10.5679 8.88166 11.8436H15.1202C15.0929 10.5719 14.9387 9.38681 14.6914 8.34562C13.8505 8.49774 12.956 8.57971 12.0286 8.57971C11.0816 8.57971 10.1691 8.49425 9.31271 8.33592ZM14.422 7.37782C14.2969 6.9906 14.158 6.63086 14.0076 6.30258C13.2938 4.74459 12.5096 4.25 12 4.25C11.4904 4.25 10.708 4.74459 9.99421 6.30258C9.84499 6.62826 9.70708 6.9849 9.5828 7.36862C10.3497 7.50494 11.1708 7.57971 12.0286 7.57971C12.8669 7.57971 13.6701 7.5083 14.422 7.37782Z" fill="#999999"/>
</svg>
