<svg width="40" height="41" viewBox="0 0 40 41" fill="none" xmlns="http://www.w3.org/2000/svg">
<circle cx="20" cy="20.25" r="20" fill="#4D4D4D"/>
<path d="M24.3868 9.05078H15.4149C11.7636 9.05078 8.80078 12.0136 8.80078 15.6649V24.6368C8.80078 28.2882 11.7636 31.251 15.4149 31.251H24.3868C28.0382 31.251 31.001 28.2882 31.001 24.6368V15.6649C31.001 12.0136 28.0382 9.05078 24.3868 9.05078ZM28.7684 24.6577C28.7684 27.078 26.8071 29.0393 24.3868 29.0393H15.4149C12.9946 29.0393 11.0333 27.078 11.0333 24.6577V15.6858C11.0333 13.2655 12.9946 11.3042 15.4149 11.3042H24.3868C26.8071 11.3042 28.7684 13.2655 28.7684 15.6858V24.6577Z" fill="#DCDCDC"/>
<path d="M19.8804 14.4121C16.709 14.4121 14.1426 16.9994 14.1426 20.1499C14.1426 23.3005 16.7298 25.8878 19.8804 25.8878C23.031 25.8878 25.6182 23.3005 25.6182 20.1499C25.6182 16.9994 23.0519 14.4121 19.8804 14.4121ZM19.8804 23.6761C17.94 23.6761 16.3751 22.1112 16.3751 20.1708C16.3751 18.2304 17.94 16.6655 19.8804 16.6655C21.8208 16.6655 23.3857 18.2304 23.3857 20.1708C23.4066 22.0904 21.8208 23.6761 19.8804 23.6761Z" fill="#DCDCDC"/>
<path d="M25.6388 15.8323C26.3993 15.8323 27.0159 15.2157 27.0159 14.4552C27.0159 13.6947 26.3993 13.0781 25.6388 13.0781C24.8783 13.0781 24.2617 13.6947 24.2617 14.4552C24.2617 15.2157 24.8783 15.8323 25.6388 15.8323Z" fill="#DCDCDC"/>
</svg>
