<svg width="40" height="41" viewBox="0 0 40 41" fill="none" xmlns="http://www.w3.org/2000/svg">
<g clip-path="url(#clip0_10299_2083)">
<circle cx="20" cy="20.25" r="20" fill="#4D4D4D"/>
<g clip-path="url(#clip1_10299_2083)">
<path d="M10 29.9504C10 24.3002 10 18.6501 10 12.9964C10.0107 12.9676 10.0285 12.9352 10.0356 12.9028C10.3273 11.726 10.619 10.542 10.9072 9.35796C10.9285 9.27519 10.9605 9.25 11.0459 9.25C17.3284 9.2536 23.6073 9.2536 29.8862 9.2536C30 9.2536 30 9.2536 30 9.37236C30 13.6909 30 18.0095 30 22.3281C30 22.4001 29.9822 22.454 29.9289 22.5044C27.4991 24.9624 25.0694 27.4204 22.6396 29.8784C22.5827 29.936 22.5258 29.9576 22.4511 29.9576C21.2842 29.954 20.1174 29.9576 18.9506 29.954C18.8723 29.954 18.8154 29.9756 18.762 30.0331C18.0576 30.7493 17.3497 31.4655 16.6418 32.1816C16.6204 32.2032 16.6026 32.2284 16.5813 32.25C15.7844 32.25 14.9875 32.25 14.1907 32.25C14.1907 32.232 14.1942 32.2176 14.1942 32.1996C14.1942 31.4799 14.1942 30.7565 14.1942 30.0367C14.1942 30.0151 14.1907 29.9935 14.1871 29.954C14.1373 29.954 14.0911 29.954 14.0448 29.954C12.7357 29.954 11.4265 29.954 10.121 29.954C10.0818 29.954 10.0427 29.954 10 29.9504ZM16.9762 27.6219C17.0224 27.5787 17.0473 27.5572 17.0722 27.532C17.9474 26.6467 18.826 25.7613 19.7012 24.8724C19.751 24.8185 19.8043 24.7969 19.8755 24.7969C21.5155 24.8005 23.1555 24.7969 24.7954 24.8005C24.8666 24.8005 24.9128 24.7789 24.9626 24.7285C26.005 23.6704 27.0473 22.616 28.0932 21.5615C28.143 21.5111 28.1644 21.4608 28.1644 21.3924C28.1644 18.0095 28.1644 14.6266 28.1644 11.2437C28.1644 11.1214 28.1644 11.1214 28.047 11.1214C22.9989 11.1214 17.9509 11.1214 12.9029 11.1214C12.789 11.1214 12.789 11.1214 12.789 11.2365C12.789 15.7171 12.789 20.2012 12.789 24.6817C12.789 24.8005 12.789 24.8005 12.91 24.8005C14.2263 24.8005 15.5425 24.8005 16.8623 24.8005C16.9833 24.8005 16.9833 24.8005 16.9833 24.9192C16.9833 25.7793 16.9833 26.6359 16.9833 27.496C16.9762 27.5248 16.9762 27.5608 16.9762 27.6219Z" fill="#DCDCDC"/>
<path d="M17.9219 17.7322C17.9219 16.8325 17.9219 15.9292 17.9219 15.0295C17.9219 14.918 17.9219 14.918 18.0286 14.918C18.5729 14.918 19.1207 14.918 19.665 14.918C19.7468 14.918 19.7682 14.9396 19.7682 15.0223C19.7646 16.8289 19.7646 18.6391 19.7682 20.4457C19.7682 20.5249 19.7504 20.5501 19.6686 20.5501C19.1207 20.5465 18.5729 20.5465 18.025 20.5501C17.9468 20.5501 17.9219 20.5285 17.9219 20.4457C17.9219 19.5424 17.9219 18.6391 17.9219 17.7322Z" fill="#DCDCDC"/>
<path d="M23.0371 20.5462C23.0371 20.4994 23.0371 20.4634 23.0371 20.431C23.0371 18.6316 23.0371 16.8322 23.0371 15.0328C23.0371 14.9177 23.0371 14.9177 23.1474 14.9177C23.6917 14.9177 24.2324 14.9177 24.7767 14.9141C24.8621 14.9141 24.8834 14.9357 24.8834 15.022C24.8799 16.8286 24.8799 18.6316 24.8834 20.4382C24.8834 20.5246 24.8621 20.5462 24.7767 20.5462C24.2324 20.5426 23.6846 20.5426 23.1403 20.5426C23.1083 20.5462 23.0798 20.5462 23.0371 20.5462Z" fill="#DCDCDC"/>
</g>
</g>
<defs>
<clipPath id="clip0_10299_2083">
<rect width="40" height="40" fill="white" transform="translate(0 0.25)"/>
</clipPath>
<clipPath id="clip1_10299_2083">
<rect width="20" height="23" fill="white" transform="translate(10 9.25)"/>
</clipPath>
</defs>
</svg>
