<svg width="40" height="41" viewBox="0 0 40 41" fill="none" xmlns="http://www.w3.org/2000/svg">
<g clip-path="url(#clip0_10299_2075)">
<circle cx="20" cy="20.25" r="20" fill="#4D4D4D"/>
<path d="M28.3303 12.4778C26.7767 11.7509 25.1156 11.2227 23.3789 10.9219C23.1656 11.3075 22.9164 11.8261 22.7446 12.2387C20.8985 11.9611 19.0693 11.9611 17.2572 12.2387C17.0854 11.8261 16.8306 11.3075 16.6154 10.9219C14.8768 11.2227 13.2138 11.7529 11.6602 12.4817C8.52664 17.2169 7.67719 21.8345 8.10192 26.3865C10.1803 27.9385 12.1944 28.8813 14.1746 29.4983C14.6635 28.8254 15.0995 28.1101 15.4752 27.3563C14.7598 27.0844 14.0745 26.749 13.4271 26.3595C13.5988 26.2322 13.7669 26.0992 13.9292 25.9623C17.8782 27.8094 22.1689 27.8094 26.0707 25.9623C26.235 26.0992 26.403 26.2322 26.5728 26.3595C25.9235 26.7509 25.2364 27.0863 24.521 27.3582C24.8966 28.1101 25.3308 28.8274 25.8216 29.5002C27.8036 28.8833 29.8197 27.9405 31.898 26.3865C32.3964 21.1095 31.0467 16.5343 28.3303 12.4778ZM16.0132 23.587C14.8277 23.587 13.8556 22.4803 13.8556 21.1326C13.8556 19.785 14.807 18.6764 16.0132 18.6764C17.2194 18.6764 18.1916 19.783 18.1708 21.1326C18.1727 22.4803 17.2194 23.587 16.0132 23.587ZM23.9867 23.587C22.8013 23.587 21.8291 22.4803 21.8291 21.1326C21.8291 19.785 22.7805 18.6764 23.9867 18.6764C25.193 18.6764 26.1651 19.783 26.1444 21.1326C26.1444 22.4803 25.193 23.587 23.9867 23.587Z" fill="#DCDCDC"/>
</g>
<defs>
<clipPath id="clip0_10299_2075">
<rect width="40" height="40" fill="white" transform="translate(0 0.25)"/>
</clipPath>
</defs>
</svg>
