<svg width="40" height="41" viewBox="0 0 40 41" fill="none" xmlns="http://www.w3.org/2000/svg">
<circle cx="20" cy="20.25" r="20" fill="#4D4D4D"/>
<g clip-path="url(#clip0_10299_2079)">
<path d="M30.54 14.92C30.4156 14.452 30.1705 14.0248 29.8292 13.6813C29.4878 13.3377 29.0622 13.0899 28.595 12.9625C26.875 12.5 20 12.5 20 12.5C20 12.5 13.125 12.5 11.405 12.9625C10.9378 13.0899 10.5122 13.3377 10.1708 13.6813C9.82951 14.0248 9.58438 14.452 9.46 14.92C9 16.6475 9 20.25 9 20.25C9 20.25 9 23.8525 9.46 25.58C9.58438 26.048 9.82951 26.4752 10.1708 26.8187C10.5122 27.1623 10.9378 27.4101 11.405 27.5375C13.125 28 20 28 20 28C20 28 26.875 28 28.595 27.5375C29.0622 27.4101 29.4878 27.1623 29.8292 26.8187C30.1705 26.4752 30.4156 26.048 30.54 25.58C31 23.8525 31 20.25 31 20.25C31 20.25 31 16.6475 30.54 14.92ZM17.75 23.5212V16.9787L23.5 20.25L17.75 23.5212Z" fill="#DCDCDC"/>
</g>
<defs>
<clipPath id="clip0_10299_2079">
<rect width="22" height="15.5" fill="white" transform="translate(9 12.5)"/>
</clipPath>
</defs>
</svg>
