<svg width="40" height="41" viewBox="0 0 40 41" fill="none" xmlns="http://www.w3.org/2000/svg">
<g clip-path="url(#clip0_10299_2096)">
<circle cx="20" cy="20.25" r="20" fill="#4D4D4D"/>
<path d="M29.9471 14.6031C29.9471 14.5014 29.9471 14.5014 29.8337 14.5014C29.5767 14.5014 29.3197 14.4724 29.0628 14.4361C28.1331 14.2981 25.1172 12.7804 24.6108 10.2969C24.6033 10.246 24.4899 9.62878 24.4899 9.36735C24.4899 9.25116 24.4899 9.25116 24.369 9.25116C24.3387 9.25116 24.316 9.25116 24.2858 9.25116C23.1067 9.25116 21.9276 9.25116 20.7485 9.25116C20.5142 9.25116 20.5444 9.22211 20.5444 9.45449C20.5444 14.3707 20.5444 19.287 20.5444 24.2032C20.5444 24.3848 20.5368 24.5663 20.5066 24.7478C20.3252 25.6991 19.8188 26.4398 18.9647 26.9554C18.2239 27.3984 17.4152 27.5219 16.5535 27.3621C16.2814 27.3113 16.032 27.2096 15.775 27.1152C15.7523 27.1007 15.7372 27.0789 15.7145 27.0644C15.6314 26.999 15.5331 26.9409 15.4424 26.8756C14.3465 26.1494 13.8325 25.14 13.9912 23.8764C14.1499 22.5984 14.9209 21.7269 16.1832 21.2767C16.5611 21.146 16.9541 21.0879 17.3623 21.1097C17.6193 21.1242 17.8763 21.1533 18.1332 21.2259C18.2239 21.2477 18.2693 21.2186 18.2693 21.1315C18.2693 21.1024 18.2693 21.0661 18.2693 21.0371C18.2693 20.1511 18.2315 18.2267 18.2315 18.2195C18.2315 17.9653 18.2315 17.7112 18.2391 17.457C18.2391 17.3844 18.2013 17.3699 18.1408 17.3626C17.6646 17.3118 17.1884 17.2972 16.7123 17.3335C16.0547 17.3771 15.4122 17.5078 14.7849 17.7257C13.7947 18.067 12.9179 18.5971 12.1621 19.3088C11.512 19.9187 11.0056 20.6231 10.6353 21.4147C10.28 22.1772 10.0759 22.9687 10.0155 23.8038C9.9928 24.1669 9.9928 24.5227 10.0306 24.8858C10.0759 25.3869 10.1742 25.8734 10.3329 26.3527C10.7864 27.7252 11.6103 28.8435 12.7819 29.7367C12.9028 29.8238 13.0162 29.9255 13.1598 29.9836C13.2203 30.0344 13.2807 30.0853 13.3412 30.1361C13.5302 30.2741 13.7342 30.3903 13.9459 30.4919C15.2535 31.1164 16.6367 31.3706 18.0955 31.1963C19.9851 30.9712 21.5572 30.1724 22.7968 28.7854C23.9608 27.4783 24.5277 25.9533 24.5428 24.2395C24.5579 21.7923 24.5428 19.3451 24.5504 16.8978C24.5504 16.8397 24.5126 16.7599 24.5806 16.7236C24.6335 16.7018 24.6864 16.7671 24.7318 16.7962C25.6766 17.3916 26.7045 17.8273 27.8081 18.0743C28.4505 18.2195 29.1005 18.2994 29.7657 18.2994C29.9773 18.2994 30 18.2921 30 18.0888C29.9924 17.2101 29.9471 14.8355 29.9471 14.6031Z" fill="#DCDCDC"/>
</g>
<defs>
<clipPath id="clip0_10299_2096">
<rect width="40" height="40" fill="white" transform="translate(0 0.25)"/>
</clipPath>
</defs>
</svg>
