<svg width="40" height="41" viewBox="0 0 40 41" fill="none" xmlns="http://www.w3.org/2000/svg">
<circle cx="20" cy="20.25" r="20" fill="#4D4D4D"/>
<path d="M25.7471 19.3147C25.661 19.2713 25.531 19.226 25.4449 19.1826C25.2711 15.6208 23.3706 13.5721 20.1738 13.5269H20.13C18.2295 13.5269 16.6294 14.3739 15.6792 15.8869L17.4514 17.1339C18.1856 15.9756 19.3097 15.753 20.1738 15.753C20.1738 15.753 20.1738 15.753 20.216 15.753C21.2541 15.753 22.0743 16.066 22.5503 16.6887C22.9385 17.1339 23.1546 17.7565 23.2845 18.5147C22.3343 18.3356 21.3401 18.2921 20.2599 18.3808C17.2353 18.5582 15.2909 20.3843 15.4209 22.9217C15.507 24.2121 16.1112 25.3252 17.1493 26.0382C18.0556 26.6608 19.1797 26.9287 20.3899 26.8834C21.9883 26.7947 23.1984 26.1721 24.1048 25.0139C24.7529 24.1687 25.185 23.0104 25.3589 21.6313C26.0931 22.12 26.6551 22.6991 26.9994 23.4556C27.5193 24.7026 27.5615 26.7947 25.9192 28.4869C24.4947 29.9565 22.7664 30.6243 20.13 30.6243C17.2353 30.6243 15.031 29.6452 13.6048 27.7739C12.2664 26.0382 11.5743 23.5008 11.5321 20.2504C11.5743 17 12.2664 14.5078 13.6048 12.7269C15.031 10.8556 17.2353 9.87648 20.13 9.87648C23.0685 9.92169 25.2711 10.8556 26.7834 12.7269C27.5193 13.6608 28.0375 14.8191 28.4257 16.1547L30.5 15.5756C30.0679 13.9287 29.3759 12.4591 28.4257 11.3008C26.5252 8.89735 23.7588 7.65039 20.1738 7.65039C16.5872 7.69561 13.8647 8.89735 12.0064 11.346C10.3642 13.4834 9.5 16.5113 9.5 20.2504C9.54388 23.9895 10.3642 26.9739 12.0064 29.1547C13.8647 31.5582 16.5872 32.8052 20.1738 32.8504C23.3267 32.8052 25.5749 31.96 27.4315 30.0904C29.8519 27.5965 29.7658 24.48 28.9877 22.5652C28.3396 21.186 27.2594 20.073 25.7471 19.3147ZM20.2599 24.6573C18.9198 24.7478 17.5375 24.1234 17.4936 22.7878C17.4514 21.8087 18.1856 20.7408 20.346 20.6069C20.6059 20.6069 20.822 20.6069 21.0802 20.6069C21.8583 20.6069 22.6364 20.6956 23.2845 20.8295C23.0685 24.0347 21.5562 24.5687 20.2599 24.6573Z" fill="#DCDCDC"/>
</svg>
