<svg width="28" height="30" viewBox="0 0 28 30" fill="none" xmlns="http://www.w3.org/2000/svg">
<path d="M26.4766 12.7193C27.2447 15.5726 27.0063 18.6033 25.8018 21.3015C24.5972 23.9996 22.4999 26.2005 19.8629 27.5335C17.2258 28.8666 14.2101 29.2506 11.3232 28.6208C8.43623 27.9911 5.85437 26.386 4.01212 24.0758C2.16987 21.7656 1.17971 18.8912 1.20827 15.9365C1.23684 12.9818 2.28239 10.1272 4.16896 7.85301C6.05553 5.57884 8.66793 4.024 11.5665 3.45016C14.1866 2.93145 16.8959 3.24292 19.3205 4.3296" stroke="#181818" stroke-width="1.5" stroke-linecap="round"/>
<path d="M19.2944 1.6648L20.6371 5.11206C20.6371 5.11206 18.7313 5.79082 17.5101 6.22574" stroke="#181818" stroke-width="1.5" stroke-linecap="round"/>
<path d="M6.73306 11.9984L14.0678 15.3323V24.0006L6.73306 20.6666V11.9984Z" stroke="#181818" stroke-width="1.5" stroke-linejoin="round"/>
<path d="M14.069 24.0003L21.4037 20.6664V11.9981L14.069 15.332V24.0003Z" stroke="#181818" stroke-width="1.5" stroke-linejoin="round"/>
<path d="M14.0678 15.3323L21.4025 11.9984L14.0678 8.66443L6.73306 11.9984L14.0678 15.3323Z" stroke="#181818" stroke-width="1.5" stroke-linejoin="round"/>
<path d="M17.8854 13.5526L18.1957 12.8698C18.4635 12.9915 18.6354 13.2585 18.6354 13.5526H17.8854ZM18.6354 16.2197C18.6354 16.6339 18.2996 16.9697 17.8854 16.9697C17.4712 16.9697 17.1354 16.6339 17.1354 16.2197H18.6354ZM17.8854 13.5526H18.6354V16.2197H17.8854H17.1354V13.5526H17.8854ZM10.7676 10.3172L11.0779 9.63442L18.1957 12.8698L17.8854 13.5526L17.575 14.2353L10.4572 11L10.7676 10.3172Z" fill="#181818"/>
</svg>
