<svg width="104" height="22" viewBox="0 0 104 22" fill="none" xmlns="http://www.w3.org/2000/svg">
<path d="M96.9976 13.7871H100.352C100.746 13.7871 101.104 13.8527 101.428 13.9838C101.752 14.1149 102.03 14.2961 102.261 14.5275C102.5 14.7511 102.685 15.0172 102.816 15.3256C102.947 15.6341 103.013 15.9696 103.013 16.332C103.013 16.787 102.932 17.1611 102.77 17.4541C102.608 17.7472 102.431 17.9824 102.238 18.1598C102.006 18.368 101.748 18.5299 101.463 18.6456L103.302 21.8846H101.856L100.179 18.877H98.27V21.8846H96.9976V13.7871ZM100.352 17.7202C100.761 17.7202 101.093 17.5929 101.347 17.3384C101.609 17.0762 101.74 16.7408 101.74 16.332C101.74 15.9233 101.609 15.5917 101.347 15.3372C101.093 15.075 100.761 14.9439 100.352 14.9439H98.27V17.7202H100.352Z" fill="white"/>
<path d="M89.4707 13.7871H95.1968V15.0017H90.7432V17.084H94.2714V18.2986H90.7432V20.67H95.3125V21.8846H89.4707V13.7871Z" fill="white"/>
<path d="M80.7388 13.7871H83.4572C84.051 13.7871 84.6024 13.8951 85.1114 14.111C85.6281 14.3269 86.0754 14.62 86.4533 14.9902C86.8389 15.3603 87.1396 15.7922 87.3556 16.2858C87.5715 16.7716 87.6795 17.2883 87.6795 17.8359C87.6795 18.3834 87.5715 18.904 87.3556 19.3975C87.1396 19.8834 86.8389 20.3114 86.4533 20.6816C86.0754 21.0517 85.6281 21.3448 85.1114 21.5607C84.6024 21.7767 84.051 21.8846 83.4572 21.8846H80.7388V13.7871ZM83.4572 20.7278C83.8736 20.7278 84.2631 20.6546 84.6256 20.508C84.988 20.3538 85.3003 20.1494 85.5626 19.8949C85.8248 19.6327 86.0291 19.3281 86.1757 18.9811C86.3299 18.6263 86.407 18.2446 86.407 17.8359C86.407 17.4348 86.3299 17.057 86.1757 16.7022C86.0291 16.3475 85.8248 16.0428 85.5626 15.7884C85.3003 15.5261 84.988 15.3218 84.6256 15.1753C84.2631 15.021 83.8736 14.9439 83.4572 14.9439H82.0112V20.7278H83.4572Z" fill="white"/>
<path d="M74.1387 13.7871H75.4111V20.67H79.3442V21.8846H74.1387V13.7871Z" fill="white"/>
<path d="M70.5552 13.7871H71.8276V21.8846H70.5552V13.7871Z" fill="white"/>
<path d="M64.9574 22.0003C64.4484 22.0003 63.9857 21.9193 63.5693 21.7574C63.1528 21.5877 62.7942 21.3564 62.4935 21.0633C62.1927 20.7625 61.9575 20.4078 61.7878 19.9991C61.6259 19.5903 61.5449 19.1392 61.5449 18.6456V13.7871H62.8174V18.6456C62.8174 18.9618 62.8714 19.2549 62.9793 19.5248C63.0873 19.7947 63.2377 20.0299 63.4305 20.2304C63.6233 20.4232 63.8508 20.5736 64.113 20.6816C64.3752 20.7895 64.6567 20.8435 64.9574 20.8435C65.2428 20.8435 65.5165 20.7857 65.7787 20.67C66.0409 20.5543 66.2684 20.4001 66.4612 20.2073C66.654 20.0068 66.8083 19.7716 66.924 19.5016C67.0396 19.2317 67.0975 18.9464 67.0975 18.6456V13.7871H68.3699V18.6456C68.3699 19.1392 68.2851 19.5903 68.1154 19.9991C67.9535 20.4078 67.7221 20.7625 67.4214 21.0633C67.1206 21.3564 66.762 21.5877 66.3456 21.7574C65.9291 21.9193 65.4664 22.0003 64.9574 22.0003Z" fill="white"/>
<path d="M53.7959 13.7871H57.0349C57.3973 13.7871 57.7251 13.8449 58.0182 13.9606C58.3189 14.0763 58.5773 14.2305 58.7932 14.4233C59.0091 14.6161 59.1749 14.8436 59.2906 15.1058C59.4063 15.3681 59.4641 15.6418 59.4641 15.9272C59.4641 16.2356 59.4101 16.4901 59.3022 16.6906C59.2019 16.8912 59.0901 17.057 58.9667 17.1881C58.8279 17.3346 58.666 17.4541 58.4809 17.5467C58.7431 17.6546 58.9744 17.8012 59.1749 17.9862C59.3523 18.1405 59.5104 18.3449 59.6492 18.5993C59.7957 18.8461 59.869 19.1507 59.869 19.5132C59.869 19.8294 59.8035 20.134 59.6724 20.4271C59.5413 20.7124 59.3562 20.963 59.1171 21.179C58.8857 21.3949 58.6081 21.5684 58.2842 21.6995C57.9603 21.8229 57.6017 21.8846 57.2084 21.8846H53.7959V13.7871ZM57.2084 20.7857C57.6171 20.7857 57.9487 20.6584 58.2032 20.4039C58.4654 20.1494 58.5965 19.8333 58.5965 19.4554C58.5965 19.0775 58.4654 18.7613 58.2032 18.5068C57.9487 18.2523 57.6171 18.1251 57.2084 18.1251H55.0684V20.7857H57.2084ZM57.0349 17.084C57.3819 17.084 57.6596 16.9837 57.8678 16.7832C58.0837 16.575 58.1917 16.3089 58.1917 15.985C58.1917 15.6611 58.0837 15.3989 57.8678 15.1984C57.6596 14.9902 57.3819 14.8861 57.0349 14.8861H55.0684V17.084H57.0349Z" fill="white"/>
<path d="M40.6108 13.7871H41.7676L44.8331 17.7202L47.8986 13.7871H49.0554V21.8846H47.7829V15.9272L44.8331 19.6867L41.8833 15.9272V21.8846H40.6108V13.7871Z" fill="white"/>
<path d="M34.5438 21.9998C33.9345 21.9998 33.3677 21.8918 32.8433 21.6759C32.3266 21.4599 31.8755 21.163 31.4899 20.7851C31.112 20.4073 30.8112 19.9677 30.5876 19.4664C30.3716 18.9574 30.2637 18.4137 30.2637 17.8353C30.2637 17.2569 30.3716 16.7171 30.5876 16.2158C30.8112 15.7068 31.112 15.2634 31.4899 14.8855C31.8755 14.5076 32.3266 14.2107 32.8433 13.9948C33.3677 13.7789 33.9345 13.6709 34.5438 13.6709C35.153 13.6709 35.716 13.7789 36.2327 13.9948C36.7571 14.2107 37.2082 14.5076 37.5861 14.8855C37.9717 15.2634 38.2725 15.7068 38.4884 16.2158C38.712 16.7171 38.8239 17.2569 38.8239 17.8353C38.8239 18.4137 38.712 18.9574 38.4884 19.4664C38.2725 19.9677 37.9717 20.4073 37.5861 20.7851C37.2082 21.163 36.7571 21.4599 36.2327 21.6759C35.716 21.8918 35.153 21.9998 34.5438 21.9998ZM34.5438 20.843C34.9602 20.843 35.3497 20.7659 35.7121 20.6116C36.0823 20.4574 36.4023 20.2453 36.6722 19.9754C36.9499 19.6978 37.1658 19.3777 37.32 19.0153C37.4743 18.6451 37.5514 18.2518 37.5514 17.8353C37.5514 17.4189 37.4743 17.0294 37.32 16.667C37.1658 16.2968 36.9499 15.9768 36.6722 15.7068C36.4023 15.4292 36.0823 15.2133 35.7121 15.059C35.3497 14.9048 34.9602 14.8277 34.5438 14.8277C34.1273 14.8277 33.734 14.9048 33.3639 15.059C33.0014 15.2133 32.6813 15.4292 32.4037 15.7068C32.1338 15.9768 31.9217 16.2968 31.7675 16.667C31.6133 17.0294 31.5361 17.4189 31.5361 17.8353C31.5361 18.2518 31.6133 18.6451 31.7675 19.0153C31.9217 19.3777 32.1338 19.6978 32.4037 19.9754C32.6813 20.2453 33.0014 20.4574 33.3639 20.6116C33.734 20.7659 34.1273 20.843 34.5438 20.843Z" fill="white"/>
<path d="M25.919 15.0017H23.4897V13.7871H29.6207V15.0017H27.1914V21.8846H25.919V15.0017Z" fill="white"/>
<path d="M20.1273 21.9998C19.6337 21.9998 19.2057 21.9381 18.8433 21.8147C18.4808 21.6913 18.1801 21.5525 17.941 21.3982C17.6634 21.2209 17.4281 21.0165 17.2354 20.7851L18.1029 19.9176C18.2263 20.0872 18.3883 20.2415 18.5888 20.3803C18.7584 20.4959 18.9705 20.6039 19.225 20.7042C19.4795 20.7967 19.7803 20.843 20.1273 20.843C20.3895 20.843 20.6209 20.8121 20.8214 20.7504C21.0219 20.681 21.1915 20.5923 21.3304 20.4844C21.4692 20.3687 21.5733 20.2376 21.6427 20.0911C21.7121 19.9445 21.7468 19.7903 21.7468 19.6284C21.7468 19.4047 21.6851 19.2235 21.5617 19.0847C21.4383 18.9381 21.2764 18.8147 21.0759 18.7145C20.8754 18.6142 20.6479 18.5294 20.3934 18.46C20.1389 18.3906 19.8767 18.3173 19.6068 18.2402C19.3368 18.1554 19.0746 18.059 18.8201 17.951C18.5657 17.8353 18.3382 17.6927 18.1376 17.523C17.9371 17.3456 17.7752 17.1297 17.6518 16.8752C17.5284 16.6207 17.4667 16.3045 17.4667 15.9266C17.4667 15.6259 17.5284 15.3405 17.6518 15.0706C17.7829 14.793 17.968 14.5501 18.207 14.3418C18.4461 14.1336 18.7353 13.9717 19.0746 13.856C19.4217 13.7326 19.8111 13.6709 20.243 13.6709C20.6594 13.6709 21.0257 13.7249 21.3419 13.8328C21.6581 13.9408 21.9242 14.0603 22.1401 14.1915C22.3946 14.3457 22.6105 14.5192 22.7879 14.712L21.9203 15.5796C21.7969 15.4408 21.6543 15.3174 21.4923 15.2094C21.3535 15.1169 21.1761 15.0321 20.9602 14.9549C20.752 14.8701 20.5129 14.8277 20.243 14.8277C19.7494 14.8277 19.3754 14.9395 19.1209 15.1632C18.8664 15.3791 18.7392 15.6336 18.7392 15.9266C18.7392 16.1503 18.8009 16.3354 18.9243 16.4819C19.0476 16.6207 19.2096 16.7402 19.4101 16.8405C19.6106 16.9408 19.8381 17.0256 20.0926 17.095C20.3471 17.1644 20.6093 17.2415 20.8792 17.3263C21.1491 17.4035 21.4113 17.4999 21.6658 17.6155C21.9203 17.7235 22.1478 17.8662 22.3483 18.0436C22.5488 18.2132 22.7108 18.4253 22.8342 18.6798C22.9576 18.9343 23.0193 19.2505 23.0193 19.6284C23.0193 19.9445 22.9499 20.2492 22.811 20.5422C22.6799 20.8276 22.491 21.0782 22.2442 21.2941C21.9974 21.5101 21.6928 21.6836 21.3304 21.8147C20.9756 21.9381 20.5746 21.9998 20.1273 21.9998Z" fill="white"/>
<path d="M12.4355 22.0003C11.9265 22.0003 11.4638 21.9193 11.0473 21.7574C10.6309 21.5877 10.2723 21.3564 9.97151 21.0633C9.67075 20.7625 9.43553 20.4078 9.26587 19.9991C9.10392 19.5903 9.02295 19.1392 9.02295 18.6456V13.7871H10.2954V18.6456C10.2954 18.9618 10.3494 19.2549 10.4574 19.5248C10.5653 19.7947 10.7157 20.0299 10.9085 20.2304C11.1013 20.4232 11.3288 20.5736 11.591 20.6816C11.8532 20.7895 12.1347 20.8435 12.4355 20.8435C12.7208 20.8435 12.9946 20.7857 13.2568 20.67C13.519 20.5543 13.7465 20.4001 13.9393 20.2073C14.1321 20.0068 14.2863 19.7716 14.402 19.5016C14.5177 19.2317 14.5755 18.9464 14.5755 18.6456V13.7871H15.848V18.6456C15.848 19.1392 15.7631 19.5903 15.5935 19.9991C15.4315 20.4078 15.2002 20.7625 14.8994 21.0633C14.5986 21.3564 14.24 21.5877 13.8236 21.7574C13.4072 21.9193 12.9444 22.0003 12.4355 22.0003Z" fill="white"/>
<path d="M4.2801 21.9998C3.67086 21.9998 3.10403 21.8918 2.57963 21.6759C2.06293 21.4599 1.61178 21.163 1.22619 20.7851C0.848307 20.4073 0.547544 19.9677 0.323899 19.4664C0.107966 18.9574 0 18.4137 0 17.8353C0 17.2569 0.107966 16.7171 0.323899 16.2158C0.547544 15.7068 0.848307 15.2634 1.22619 14.8855C1.61178 14.5076 2.06293 14.2107 2.57963 13.9948C3.10403 13.7789 3.67086 13.6709 4.2801 13.6709C4.83535 13.6709 5.31734 13.7519 5.72607 13.9138C6.1348 14.0758 6.47798 14.257 6.75561 14.4575C7.0718 14.6889 7.34557 14.9472 7.57693 15.2326L6.76718 16.0423C6.60523 15.8187 6.40086 15.6182 6.15408 15.4408C5.94586 15.2865 5.68366 15.1477 5.36747 15.0243C5.059 14.8932 4.69654 14.8277 4.2801 14.8277C3.86365 14.8277 3.47035 14.9048 3.10018 15.059C2.73772 15.2133 2.41768 15.4292 2.14005 15.7068C1.87013 15.9768 1.65805 16.2968 1.50382 16.667C1.34958 17.0294 1.27246 17.4189 1.27246 17.8353C1.27246 18.2518 1.34958 18.6451 1.50382 19.0153C1.65805 19.3777 1.87013 19.6978 2.14005 19.9754C2.41768 20.2453 2.73772 20.4574 3.10018 20.6116C3.47035 20.7659 3.86365 20.843 4.2801 20.843C4.69654 20.843 5.06285 20.7774 5.37904 20.6463C5.69523 20.5152 5.96129 20.3687 6.17722 20.2067C6.43171 20.0217 6.64764 19.8096 6.82502 19.5705L7.63476 20.3803C7.3957 20.681 7.11036 20.9509 6.77875 21.19C6.49341 21.3905 6.14251 21.5756 5.72607 21.7453C5.31734 21.9149 4.83535 21.9998 4.2801 21.9998Z" fill="white"/>
<path d="M64.3641 8.32887C63.7548 8.32887 63.188 8.2209 62.6636 8.00497C62.1469 7.78904 61.6958 7.49213 61.3102 7.11424C60.9323 6.73636 60.6315 6.29678 60.4079 5.79551C60.1919 5.28652 60.084 4.74283 60.084 4.16443C60.084 3.58604 60.1919 3.04621 60.4079 2.54493C60.6315 2.03595 60.9323 1.59251 61.3102 1.21463C61.6958 0.836743 62.1469 0.539834 62.6636 0.3239C63.188 0.107967 63.7548 0 64.3641 0C64.9193 0 65.4013 0.0809752 65.8101 0.242926C66.2188 0.404876 66.562 0.586106 66.8396 0.786616C67.1558 1.01797 67.4296 1.27632 67.6609 1.56166L66.8512 2.37142C66.6892 2.14777 66.4848 1.94726 66.2381 1.76988C66.0298 1.61565 65.7676 1.47683 65.4515 1.35344C65.143 1.22234 64.7805 1.15679 64.3641 1.15679C63.9476 1.15679 63.5543 1.23391 63.1842 1.38815C62.8217 1.54238 62.5017 1.75832 62.224 2.03595C61.9541 2.30586 61.742 2.62591 61.5878 2.99608C61.4336 3.35854 61.3564 3.74799 61.3564 4.16443C61.3564 4.58088 61.4336 4.97419 61.5878 5.34436C61.742 5.70682 61.9541 6.02686 62.224 6.30449C62.5017 6.57441 62.8217 6.78649 63.1842 6.94073C63.5543 7.09496 63.9476 7.17208 64.3641 7.17208C64.7805 7.17208 65.1468 7.10653 65.463 6.97543C65.7792 6.84433 66.0453 6.6978 66.2612 6.53585C66.5157 6.35076 66.7316 6.13869 66.909 5.89962L67.7187 6.70937C67.4797 7.01013 67.1943 7.28005 66.8627 7.51912C66.5774 7.71963 66.2265 7.90472 65.8101 8.07438C65.4013 8.24404 64.9193 8.32887 64.3641 8.32887Z" fill="white"/>
<path d="M52.9746 0.115234H56.2136C56.6069 0.115234 56.9694 0.184642 57.301 0.323456C57.6326 0.454559 57.9179 0.639645 58.157 0.878715C58.4038 1.11007 58.5927 1.38384 58.7238 1.70003C58.8626 2.01622 58.932 2.35555 58.932 2.71801C58.932 3.08047 58.8626 3.41979 58.7238 3.73598C58.5927 4.05217 58.4038 4.3298 58.157 4.56887C57.9179 4.80022 57.6326 4.98531 57.301 5.12412C56.9694 5.25523 56.6069 5.32078 56.2136 5.32078H54.2471V8.21275H52.9746V0.115234ZM56.2136 4.16399C56.4141 4.16399 56.6031 4.12929 56.7804 4.05988C56.9578 3.98276 57.112 3.87865 57.2431 3.74755C57.3742 3.61644 57.4745 3.46221 57.5439 3.28483C57.621 3.10746 57.6596 2.91852 57.6596 2.71801C57.6596 2.5175 57.621 2.32855 57.5439 2.15118C57.4745 1.97381 57.3742 1.81957 57.2431 1.68847C57.112 1.55736 56.9578 1.45711 56.7804 1.3877C56.6031 1.31058 56.4141 1.27202 56.2136 1.27202H54.2471V4.16399H56.2136Z" fill="white"/>
<path d="M44.9915 8.32887C44.3823 8.32887 43.8155 8.2209 43.291 8.00497C42.7744 7.78904 42.3232 7.49213 41.9376 7.11424C41.5597 6.73636 41.259 6.29678 41.0353 5.79551C40.8194 5.28652 40.7114 4.74283 40.7114 4.16443C40.7114 3.58604 40.8194 3.04621 41.0353 2.54493C41.259 2.03595 41.5597 1.59251 41.9376 1.21463C42.3232 0.836743 42.7744 0.539834 43.291 0.3239C43.8155 0.107967 44.3823 0 44.9915 0C45.5468 0 46.0288 0.0809752 46.4375 0.242926C46.8462 0.404876 47.1894 0.586106 47.467 0.786616C47.7832 1.01797 48.057 1.27632 48.2884 1.56166L47.4786 2.37142C47.3167 2.14777 47.1123 1.94726 46.8655 1.76988C46.6573 1.61565 46.3951 1.47683 46.0789 1.35344C45.7704 1.22234 45.408 1.15679 44.9915 1.15679C44.5751 1.15679 44.1818 1.23391 43.8116 1.38815C43.4491 1.54238 43.1291 1.75832 42.8515 2.03595C42.5816 2.30586 42.3695 2.62591 42.2152 2.99608C42.061 3.35854 41.9839 3.74799 41.9839 4.16443C41.9839 4.58088 42.061 4.97419 42.2152 5.34436C42.3695 5.70682 42.5816 6.02686 42.8515 6.30449C43.1291 6.57441 43.4491 6.78649 43.8116 6.94073C44.1818 7.09496 44.5751 7.17208 44.9915 7.17208C45.354 7.17208 45.6702 7.12967 45.9401 7.04484C46.2177 6.95229 46.4491 6.85204 46.6342 6.74407C46.8501 6.61297 47.0352 6.46644 47.1894 6.30449V5.08987H45.5121V3.93308H48.4619V6.76721C48.2151 7.06026 47.9182 7.32247 47.5711 7.55382C47.2781 7.75433 46.9156 7.93556 46.4838 8.09751C46.0519 8.25175 45.5545 8.32887 44.9915 8.32887Z" fill="white"/>
<path d="M32.0361 0.115234H33.1929L37.6465 6.07269V0.115234H38.919V8.21275H37.7622L33.3086 2.25529V8.21275H32.0361V0.115234Z" fill="white"/>
<path d="M28.4551 0.115234H29.7275V8.21275H28.4551V0.115234Z" fill="white"/>
<path d="M17.7051 0.115234H18.8619L21.9273 4.04831L24.9928 0.115234H26.1496V8.21275H24.8771V2.25529L21.9273 6.01485L18.9775 2.25529V8.21275H17.7051V0.115234Z" fill="white"/>
<path d="M11.7995 0.115234H13.1877L16.4267 8.21275H15.0964L14.2866 6.13053H10.7006L9.89085 8.21275H8.56055L11.7995 0.115234ZM13.8239 4.97374L12.4936 1.61906L11.1633 4.97374H13.8239Z" fill="white"/>
<path d="M4.2801 8.32887C3.67086 8.32887 3.10403 8.2209 2.57963 8.00497C2.06293 7.78904 1.61178 7.49213 1.22619 7.11424C0.848307 6.73636 0.547544 6.29678 0.323899 5.79551C0.107966 5.28652 0 4.74283 0 4.16443C0 3.58604 0.107966 3.04621 0.323899 2.54493C0.547544 2.03595 0.848307 1.59251 1.22619 1.21463C1.61178 0.836743 2.06293 0.539834 2.57963 0.3239C3.10403 0.107967 3.67086 0 4.2801 0C4.83535 0 5.31734 0.0809752 5.72607 0.242926C6.1348 0.404876 6.47798 0.586106 6.75561 0.786616C7.0718 1.01797 7.34557 1.27632 7.57693 1.56166L6.76718 2.37142C6.60523 2.14777 6.40086 1.94726 6.15408 1.76988C5.94586 1.61565 5.68366 1.47683 5.36747 1.35344C5.059 1.22234 4.69654 1.15679 4.2801 1.15679C3.86365 1.15679 3.47035 1.23391 3.10018 1.38815C2.73772 1.54238 2.41768 1.75832 2.14005 2.03595C1.87013 2.30586 1.65805 2.62591 1.50382 2.99608C1.34958 3.35854 1.27246 3.74799 1.27246 4.16443C1.27246 4.58088 1.34958 4.97419 1.50382 5.34436C1.65805 5.70682 1.87013 6.02686 2.14005 6.30449C2.41768 6.57441 2.73772 6.78649 3.10018 6.94073C3.47035 7.09496 3.86365 7.17208 4.2801 7.17208C4.64255 7.17208 4.95874 7.12967 5.22866 7.04484C5.50628 6.95229 5.73764 6.85204 5.92273 6.74407C6.13866 6.61297 6.32374 6.46644 6.47798 6.30449V5.08987H4.80065V3.93308H7.75044V6.76721C7.50366 7.06026 7.20675 7.32247 6.85972 7.55382C6.56667 7.75433 6.20421 7.93556 5.77234 8.09751C5.34048 8.25175 4.84306 8.32887 4.2801 8.32887Z" fill="white"/>
</svg>
