<svg width="87" height="20" viewBox="0 0 87 20" fill="none" xmlns="http://www.w3.org/2000/svg">
<g clip-path="url(#clip0_19057_6480)">
<mask id="mask0_19057_6480" style="mask-type:luminance" maskUnits="userSpaceOnUse" x="0" y="0" width="87" height="19">
<path d="M0 0.5H86.7414V18.3125H0V0.5Z" fill="white"/>
</mask>
<g mask="url(#mask0_19057_6480)">
<path d="M41.8446 0.510535H26.7283C23.2242 0.510535 21.6702 2.71335 21.3114 4.81641V0.510535H12.9219C12.4652 0.467785 12.0048 0.55566 11.5976 0.76466C11.1892 0.972473 10.8508 1.29191 10.62 1.68497L8.31937 5.06578H41.8409L41.8446 0.510535ZM0 18.3076H6.0175L13.5623 6.06328L8.18162 5.52891L0 18.3064V18.3076ZM47.6856 0.514098H42.7303V5.07172H47.6844L47.6856 0.514098ZM79.147 7.63316L63.6417 6.70691C63.6417 9.09141 65.2004 10.6898 67.8551 10.9083L78.8993 11.7633C79.7487 11.8333 80.2804 12.0471 80.2804 12.7584C80.2804 13.4365 79.6811 13.6847 78.4401 13.6847H63.394V18.3112H78.7591C83.6094 18.3112 85.7324 16.6012 85.7324 12.7228C85.7324 9.23391 83.8196 7.91816 79.147 7.63316Z" fill="white"/>
<path d="M63.4399 6.70712L58.5534 6.42212V11.6554C58.5534 13.293 57.7378 13.7917 54.9067 13.7917H51.0134C48.6765 13.7917 47.6857 13.1137 47.6857 11.6554V5.92455L42.7291 5.56831V12.0817H42.624C42.3412 10.196 41.6331 7.98843 36.9242 7.6678L21.4189 6.63587C21.4189 9.02037 23.1166 10.4442 25.7713 10.7292L36.5702 11.8312C37.4197 11.9024 38.0564 12.1518 38.0564 12.8643C38.0564 13.6457 37.4197 13.7169 36.4276 13.7169H21.2425V6.59906L16.2871 6.27843V18.3126H36.4663C40.9613 18.3126 42.4137 15.9637 42.6264 14.0055H42.7327C43.3006 17.1025 45.9904 18.3126 50.5567 18.3126H55.5833C60.9302 18.3126 63.4435 16.675 63.4435 12.8299L63.4399 6.70712ZM85.3881 5.07074V0.510742H68.7493C65.2863 0.510742 63.7227 2.66724 63.4496 4.74774C63.4496 4.77149 63.4435 4.79524 63.4399 4.81899V0.510742H58.5534V5.06599H85.3869L85.3881 5.07074Z" fill="white"/>
</g>
</g>
<defs>
<clipPath id="clip0_19057_6480">
<rect width="87" height="19" fill="white" transform="translate(0 0.5)"/>
</clipPath>
</defs>
</svg>
