<svg width="135" height="26" viewBox="0 0 135 26" fill="none" xmlns="http://www.w3.org/2000/svg">
  <path d="M2.87708 17.2956C4.26932 18.6707 9.16083 19.9623 9.16083 19.9623L0 11.8435C0 11.8435 1.49946 15.935 2.87708 17.2956Z" fill="#F7323F"/>
  <path d="M17.0025 16.0457C22.8168 11.6093 27.9471 7.99437 33.0644 5.34375C37.8796 2.85036 40.6105 2.1845 42.6672 1.3999H39.8876C36.4126 1.3999 31.2433 2.09625 27.3964 3.74888C24.2025 5.12072 14.824 14.5632 14.2116 15.1488C13.2709 16.0473 13.037 16.2511 11.6854 15.7842C9.54585 15.0959 6.20253 13.2395 6.20253 13.2395C6.20253 13.2395 9.85127 18.8905 11.1265 20.5993C13.0955 23.237 16.4697 24.6009 16.4697 24.6009C16.4697 24.6009 13.9727 21.9198 13.3294 20.7437C12.743 19.6703 13.4805 18.7316 16.9993 16.0457H17.0025Z" fill="#F7323F"/>
  <path d="M33.4267 8.57359C25.3852 12.5367 14.7412 19.9607 14.7412 19.9607C17.7953 21.8748 25.5184 24.6025 30.92 24.6009C36.9406 24.6009 42.6655 9.72241 42.6655 9.72241C32.2701 13.9294 25.3998 17.5555 25.3998 17.5555L36.3168 14.2567C36.3168 14.2567 32.889 21.9823 28.9154 21.9823C24.3211 21.9823 18.9699 19.8468 18.9699 19.8468C28.22 13.6133 42.443 7.95746 43.2325 7.60448C43.9928 7.26432 44.6345 5.95345 44.6345 5.34695C44.2284 5.34695 38.7731 5.93901 33.4267 8.57198V8.57359Z" fill="#F7323F"/>
  <path d="M99.8156 16.9458H104.096L104.941 15.9623H98.2414L97.3284 17.0229V19.8034H102.741V21.1304L102.286 21.6598H97.1594L98.0058 22.645H103.859L104.772 21.5844V18.8199H99.3591V17.4769L99.8156 16.9458Z" fill="#F7323F"/>
  <path d="M95.9751 19.4986V16.296C95.9751 16.1115 95.824 15.9623 95.6372 15.9623H88.5314V22.6466H90.5621V16.9458H93.7202C93.8453 16.9458 93.9461 17.0453 93.9461 17.1689V18.5166H90.848L94.4009 22.6466H96.8215L94.115 19.5002H95.9767L95.9751 19.4986Z" fill="#F7323F"/>
  <path d="M86.8029 16.9458L87.6477 15.9623H80.035V22.645H87.6477L86.8029 21.6631H82.0657V19.8034H87.1782V18.8199H82.0657V16.9458H86.8029Z" fill="#F7323F"/>
  <path d="M59.5641 16.9458L60.4105 15.9623H52.7979V22.645H60.2415V19.1071H58.2125V21.6631H54.8285V16.9458H59.5641Z" fill="#F7323F"/>
  <path d="M68.7006 15.9623H61.5948V22.6466H63.6255V19.8051H67.0094V22.6466H69.0401V16.2976C69.0401 16.1131 68.889 15.9639 68.7022 15.9639L68.7006 15.9623ZM67.0094 18.8199H63.6255V16.9458H66.7836C66.9087 16.9458 67.0094 17.0453 67.0094 17.1689V18.8199Z" fill="#F7323F"/>
  <path d="M70.3917 15.9623V22.645H72.4224V18.8199L74.5376 20.0907L76.6511 18.8199V22.645H78.6818V15.9623L74.5376 18.515L70.3917 15.9623Z" fill="#F7323F"/>
  <path d="M60.5794 5.34858H52.7979V9.66466L54.8285 12.0313V6.33213H58.6625C58.7876 6.33213 58.8883 6.43161 58.8883 6.55515V8.49499H55.6392L60.919 14.6322V12.0329L58.721 9.47854H60.919V5.68391C60.919 5.4994 60.7679 5.35018 60.5811 5.35018L60.5794 5.34858Z" fill="#F7323F"/>
  <path d="M69.0385 6.33213L69.8849 5.34858H62.2722V12.0329H69.8849L69.0385 11.0493H64.3013V9.18973H69.4154V8.20778H64.3013V6.33213H69.0385Z" fill="#F7323F"/>
  <path d="M72.7977 9.47854H78.2107V5.68391C78.2107 5.4994 78.0596 5.35018 77.8728 5.35018H70.767V12.0329H72.7977V9.47854ZM72.7977 6.33213H75.9558C76.0809 6.33213 76.1816 6.43161 76.1816 6.55515V8.49499H72.7977V6.33213Z" fill="#F7323F"/>
  <path d="M87.0092 5.34858H84.9785V11.0493H81.5946V5.34858H79.5656V12.0329H87.0092V5.34858Z" fill="#F7323F"/>
  <path d="M95.8029 7.89972H95.1255V5.68391C95.1255 5.4994 94.9744 5.35018 94.7876 5.35018H88.3592V12.0329H95.8029V7.89972ZM93.7722 11.0493H90.3883V8.88327H93.7722V11.0493ZM93.7722 7.89972H90.3883V6.33213H93.5464C93.6715 6.33213 93.7722 6.43161 93.7722 6.55515V7.89972Z" fill="#F7323F"/>
  <path d="M103.419 11.0493H99.1901V5.34858H97.1594V12.0329H102.572L103.419 11.0493Z" fill="#F7323F"/>
  <path d="M105.956 5.34858H103.926V12.0313H105.956V5.34858Z" fill="#F7323F"/>
  <path d="M114.076 6.33213L114.922 5.34858H107.31V12.0329H114.076L114.922 11.0493H109.34V6.33213H114.076Z" fill="#F7323F"/>
  <path d="M125.618 5.34858H118.512V10.1428L120.174 12.0313H125.956V5.68391C125.956 5.4994 125.805 5.35018 125.618 5.35018V5.34858ZM123.927 11.0493H121.669L120.545 9.77056V6.33373H123.703C123.828 6.33373 123.929 6.43321 123.929 6.55676V11.0509L123.927 11.0493Z" fill="#F7323F"/>
  <path d="M129.34 6.33213H134.077L134.922 5.34858H127.309V12.0329H129.34V8.88488H133.908L134.753 7.90293H129.34V6.33213Z" fill="#F7323F"/>
</svg>
