<svg width="32" height="32" viewBox="0 0 32 32" fill="none" xmlns="http://www.w3.org/2000/svg">
<path d="M29.5 9.75001L2 9.75L30 9.75" stroke="#181818" stroke-width="2" stroke-miterlimit="10" stroke-linecap="round"/>
<path d="M3.5 5C1.98122 5 0.75 6.23122 0.75 7.75V22.75C0.75 24.2688 1.98122 25.5 3.5 25.5H16.4738L16.3455 24H3.5C2.80964 24 2.25 23.4404 2.25 22.75V7.75C2.25 7.05964 2.80964 6.5 3.5 6.5H28.5C29.1904 6.5 29.75 7.05964 29.75 7.75V14.5936L31.2004 15.3134C31.2171 15.3168 31.2336 15.3205 31.25 15.3246V7.75C31.25 6.23122 30.0188 5 28.5 5H3.5Z" fill="#181818"/>
<path d="M21.5 21.8499L23.2073 23.7499L26.5 19.7499" stroke="#666666" stroke-width="1.5" stroke-miterlimit="10" stroke-linecap="round"/>
<rect x="4.5" y="17.75" width="4" height="4" fill="#181818"/>
<path d="M23.4482 14.6074C23.7961 14.4363 24.2039 14.4363 24.5518 14.6074L28.9062 16.751C29.3795 16.9841 29.6552 17.4895 29.5957 18.0137L28.8467 24.6074C28.8099 24.931 28.6485 25.2283 28.3965 25.4346L24.792 28.3838C24.3315 28.7605 23.6685 28.7605 23.208 28.3838L19.6035 25.4346C19.3515 25.2283 19.1901 24.931 19.1533 24.6074L18.4043 18.0137C18.3448 17.4895 18.6205 16.9841 19.0938 16.751L23.4482 14.6074Z" stroke="#181818" stroke-width="1.5"/>
</svg>
