<svg width="30" height="24" viewBox="0 0 30 24" fill="none" xmlns="http://www.w3.org/2000/svg">
<path d="M6.97374 23.024C8.2624 23.024 9.30707 21.9794 9.30707 20.6907C9.30707 19.402 8.2624 18.3574 6.97374 18.3574C5.68507 18.3574 4.6404 19.402 4.6404 20.6907C4.6404 21.9794 5.68507 23.024 6.97374 23.024Z" stroke="#181818" stroke-width="1.5" stroke-miterlimit="10"/>
<path d="M6.97374 23.024C8.2624 23.024 9.30707 21.9794 9.30707 20.6907C9.30707 19.402 8.2624 18.3574 6.97374 18.3574C5.68507 18.3574 4.6404 19.402 4.6404 20.6907C4.6404 21.9794 5.68507 23.024 6.97374 23.024Z" stroke="#181818" stroke-width="1.5" stroke-miterlimit="10"/>
<path d="M21.9069 23.024C23.1956 23.024 24.2403 21.9794 24.2403 20.6907C24.2403 19.402 23.1956 18.3574 21.9069 18.3574C20.6183 18.3574 19.5736 19.402 19.5736 20.6907C19.5736 21.9794 20.6183 23.024 21.9069 23.024Z" stroke="#181818" stroke-width="1.5" stroke-miterlimit="10"/>
<path d="M21.9069 23.024C23.1956 23.024 24.2403 21.9794 24.2403 20.6907C24.2403 19.402 23.1956 18.3574 21.9069 18.3574C20.6183 18.3574 19.5736 19.402 19.5736 20.6907C19.5736 21.9794 20.6183 23.024 21.9069 23.024Z" stroke="#181818" stroke-width="1.5" stroke-miterlimit="10"/>
<path d="M4.73333 21H1V1L24 1V6.71429L29 9.19048V21H24.3333" stroke="#181818" stroke-width="1.5" stroke-miterlimit="10" stroke-linejoin="round"/>
<path d="M19.6666 20.7841H9.39997" stroke="#181818" stroke-width="1.5" stroke-miterlimit="10" stroke-linejoin="round"/>
<path d="M6 10L19 10" stroke="#181818" stroke-width="1.5" stroke-miterlimit="10" stroke-linecap="round" stroke-linejoin="round"/>
<path d="M15 14L18.9298 10.0702L15 6" stroke="#181818" stroke-width="1.5" stroke-miterlimit="10" stroke-linecap="round" stroke-linejoin="round"/>
</svg>
