<svg width="32" height="32" viewBox="0 0 32 32" fill="none" xmlns="http://www.w3.org/2000/svg">
<path d="M16.405 2.26172L26.8836 4.15527L26.8963 4.1582C28.047 4.38598 28.852 5.42218 28.739 6.65137L27.4265 20.9316C27.5082 21.772 26.916 22.3632 26.5173 22.6787L26.4959 22.6943L17.4148 29.374L17.3787 29.4004L17.3386 29.4229C16.5665 29.8589 15.6654 29.8592 14.8933 29.4229L14.8582 29.4023L14.825 29.3789L5.51051 22.7002H5.50954C4.90281 22.3109 4.60558 21.6335 4.50954 21.0635L4.50465 21.0342L4.50172 21.0039L3.25954 6.64746L3.26051 6.64648C3.15174 5.51024 3.94021 4.38869 5.10329 4.1582L5.11598 4.15527L15.5945 2.26172L15.7283 2.25H16.2713C16.3158 2.25 16.3612 2.25382 16.405 2.26172ZM5.39333 5.62891L5.3943 5.62988C5.03364 5.70171 4.75058 6.06332 4.74977 6.43359L4.75368 6.50684L4.75465 6.51758L5.99098 20.8271C6.04161 21.1123 6.16354 21.3127 6.28004 21.4102L6.33083 21.4453L6.35817 21.4619L6.38454 21.4814L15.6541 28.1279C15.9524 28.288 16.2723 28.2884 16.5711 28.1309L25.5916 21.4971C25.7463 21.3739 25.844 21.2679 25.8953 21.1836C25.9397 21.1104 25.9361 21.0796 25.9334 21.0635L25.9168 20.9678L25.9256 20.8701L27.2459 6.51367C27.2879 6.05434 27.0065 5.70944 26.6052 5.62988V5.62891L16.2029 3.75H15.7966L5.39333 5.62891ZM15.949 7.25C16.2324 7.24961 16.4922 7.40909 16.6199 7.66211L22.6697 19.6621C22.8205 19.9612 22.7548 20.3247 22.5086 20.5518C22.2622 20.7786 21.8949 20.8142 21.6091 20.6396L15.7283 17.0479L10.4119 20.5439C10.1286 20.7299 9.75516 20.7026 9.50172 20.4775C9.24855 20.2524 9.17764 19.8852 9.32887 19.582L15.2791 7.66504L15.3328 7.57422C15.4711 7.37365 15.701 7.25063 15.949 7.25ZM17.114 16.1367L20.1453 17.9883L18.6892 15.1006L17.114 16.1367ZM11.9138 17.7598L15.3054 15.5312L18.0095 13.752L15.9529 9.67188L11.9138 17.7598Z" fill="#181818"/>
</svg>
